<?xml version="1.0" encoding="utf-8"?>
<!-- Generator: Adobe Illustrator 24.1.2, SVG Export Plug-In . SVG Version: 6.00 Build 0)  -->
<svg version="1.1" id="Layer_1" xmlns="http://www.w3.org/2000/svg" xmlns:xlink="http://www.w3.org/1999/xlink" x="0px" y="0px"
	 viewBox="0 0 28.99 28.99" style="enable-background:new 0 0 28.99 28.99;" xml:space="preserve">
<g>
	<polygon points="21.21,18.65 12.03,16.86 12.03,7.07 15.03,7.07 15.03,14.39 21.79,15.71 	"/>
</g>
<g>
	<path d="M14.5,28.99C6.5,28.99,0,22.49,0,14.5C0,6.5,6.5,0,14.5,0c7.99,0,14.5,6.5,14.5,14.5C28.99,22.49,22.49,28.99,14.5,28.99z
		 M14.5,3C8.16,3,3,8.16,3,14.5c0,6.34,5.16,11.5,11.5,11.5c6.34,0,11.5-5.16,11.5-11.5C25.99,8.16,20.84,3,14.5,3z"/>
</g>
</svg>
