<?xml version="1.0" encoding="utf-8"?>
<!-- Generator: Adobe Illustrator 24.1.2, SVG Export Plug-In . SVG Version: 6.00 Build 0)  -->
<svg version="1.1" id="Layer_1" xmlns="http://www.w3.org/2000/svg" xmlns:xlink="http://www.w3.org/1999/xlink" x="0px" y="0px"
	 viewBox="0 0 25.83 25.07" style="enable-background:new 0 0 25.83 25.07;" xml:space="preserve">
<style type="text/css">
	.st0{fill:#020203;}
</style>
<g>
	<path class="st0" d="M24.83,25.07c-0.24,0-0.47-0.08-0.66-0.25l-5.72-5.07c-0.21-0.18-0.33-0.44-0.34-0.71
		c-0.01-0.27,0.09-0.54,0.29-0.74c1.78-1.8,2.75-4.19,2.75-6.72c0-5.28-4.3-9.58-9.58-9.58S2,6.3,2,11.58s4.3,9.58,9.58,9.58
		c1.1,0,2.18-0.18,3.2-0.55c0.52-0.19,1.09,0.09,1.28,0.61c0.18,0.52-0.09,1.09-0.61,1.28c-1.24,0.44-2.54,0.66-3.87,0.66
		C5.19,23.15,0,17.96,0,11.58S5.19,0,11.58,0s11.58,5.19,11.58,11.58c0,2.71-0.92,5.27-2.62,7.34l4.97,4.4
		c0.41,0.37,0.45,1,0.08,1.41C25.39,24.95,25.11,25.07,24.83,25.07z"/>
</g>
</svg>
