<?xml version="1.0" encoding="utf-8"?>
<!-- Generator: Adobe Illustrator 24.1.2, SVG Export Plug-In . SVG Version: 6.00 Build 0)  -->
<svg version="1.1" id="Layer_1" xmlns="http://www.w3.org/2000/svg" xmlns:xlink="http://www.w3.org/1999/xlink" x="0px" y="0px"
	 viewBox="0 0 28.77 25.52" style="enable-background:new 0 0 28.77 25.52;" xml:space="preserve">
<style type="text/css">
	.st0{fill:#020203;}
</style>
<g>
	<path class="st0" d="M26.76,0H2.01C0.9,0,0,0.9,0,2.01v18.91c0,1.11,0.9,2.01,2.01,2.01h7c0.55,0,1-0.45,1-1s-0.45-1-1-1L2,20.92
		L2.01,8.1h24.76l-0.01,12.83h-1.34c-0.55,0-1,0.45-1,1s0.45,1,1,1h1.34c1.11,0,2.01-0.9,2.01-2.01V2.01C28.77,0.9,27.87,0,26.76,0z
		 M2.01,6.1l0-4.1l24.76,0.01l0,4.09H2.01z"/>
	<path class="st0" d="M4.33,3.19c-0.28,0-0.5,0.22-0.5,0.5v0.86c0,0.28,0.22,0.5,0.5,0.5s0.5-0.22,0.5-0.5V3.69
		C4.83,3.41,4.61,3.19,4.33,3.19z"/>
	<path class="st0" d="M6.45,3.19c-0.28,0-0.5,0.22-0.5,0.5v0.86c0,0.28,0.22,0.5,0.5,0.5s0.5-0.22,0.5-0.5V3.69
		C6.95,3.41,6.73,3.19,6.45,3.19z"/>
	<path class="st0" d="M8.57,3.19c-0.28,0-0.5,0.22-0.5,0.5v0.86c0,0.28,0.22,0.5,0.5,0.5s0.5-0.22,0.5-0.5V3.69
		C9.07,3.41,8.84,3.19,8.57,3.19z"/>
	<path class="st0" d="M17.13,10.14c-3.18,0-5.78,2.59-5.78,5.78v3.82c0,3.19,2.59,5.78,5.78,5.78c3.19,0,5.78-2.59,5.78-5.78v-3.82
		C22.9,12.73,20.31,10.14,17.13,10.14z M20.9,19.74c0,2.08-1.69,3.78-3.78,3.78s-3.78-1.69-3.78-3.78v-3.82
		c0-2.08,1.69-3.78,3.78-3.78s3.78,1.69,3.78,3.78V19.74z"/>
	<path class="st0" d="M17.13,12.43c-0.55,0-1,0.45-1,1v2.51c0,0.55,0.45,1,1,1s1-0.45,1-1v-2.51
		C18.13,12.88,17.68,12.43,17.13,12.43z"/>
</g>
</svg>
