<?xml version="1.0" encoding="utf-8"?>
<!-- Generator: Adobe Illustrator 24.1.2, SVG Export Plug-In . SVG Version: 6.00 Build 0)  -->
<svg version="1.1" id="Layer_1" xmlns="http://www.w3.org/2000/svg" xmlns:xlink="http://www.w3.org/1999/xlink" x="0px" y="0px"
	 viewBox="0 0 25.4 26.25" style="enable-background:new 0 0 25.4 26.25;" xml:space="preserve">
<style type="text/css">
	.st0{fill:#020203;}
</style>
<path class="st0" d="M20.84,15.68c-1.31-0.92-2.82-1.59-4.47-1.99c2.19-1.27,3.67-3.64,3.67-6.35C20.04,3.29,16.75,0,12.7,0
	S5.35,3.29,5.35,7.34c0,2.66,1.43,4.99,3.55,6.28c-1.7,0.37-3.18,0.98-4.41,1.84c-2.66,1.87-4.38,5.21-4.5,8.72
	c-0.02,0.55,0.41,1.01,0.97,1.03C1.54,25.26,1.98,24.8,2,24.25c0.1-2.89,1.5-5.63,3.65-7.15c1.33-0.94,3.07-1.53,5.16-1.76
	c3.39-0.38,6.54,0.33,8.87,1.98c2.31,1.63,3.73,4.29,3.71,6.83c-5.53,0.16-11.13,0.15-16.65-0.04c-0.54-0.02-1.01,0.41-1.03,0.97
	s0.41,1.01,0.97,1.03c2.98,0.1,5.98,0.15,8.98,0.15c2.91,0,5.81-0.05,8.7-0.14l0.84-0.03l0.12-0.84
	C25.8,21.7,24.04,17.95,20.84,15.68z M7.35,7.34C7.35,4.4,9.75,2,12.7,2c2.95,0,5.34,2.4,5.34,5.34c0,2.95-2.4,5.34-5.34,5.34
	C9.75,12.69,7.35,10.29,7.35,7.34z"/>
</svg>
