<?xml version="1.0" encoding="utf-8"?>
<!-- Generator: Adobe Illustrator 24.1.2, SVG Export Plug-In . SVG Version: 6.00 Build 0)  -->
<svg version="1.1" id="Layer_1" xmlns="http://www.w3.org/2000/svg" xmlns:xlink="http://www.w3.org/1999/xlink" x="0px" y="0px"
	 viewBox="0 0 380 100" style="enable-background:new 0 0 380 100;" xml:space="preserve">
<style type="text/css">
	.st0{fill:#234E4F;}
</style>
<path class="st0" d="M141.77,18.39c-1.31-0.36-2.74-0.4-4.12-0.1c-0.12,0.03-0.23,0.05-0.32,0.08L87.25,32.58
	c-0.49,0.14-1,0.2-1.6,0.2c-0.58,0-1.12-0.07-1.6-0.2L33.98,18.37c-0.09-0.03-0.2-0.05-0.32-0.08c-1.38-0.29-2.81-0.26-4.12,0.1
	c-4.28,1.17-7.26,5.09-7.26,9.53v53.98h5.07l0-54.2c0.06-1.36,0.75-2.61,1.89-3.43c1.2-0.87,2.7-1.14,4.12-0.74l49.67,14.08
	c0.82,0.23,1.71,0.35,2.63,0.35c0.94,0,1.8-0.11,2.63-0.35l49.67-14.08c1.41-0.4,2.91-0.13,4.12,0.74c1.14,0.82,1.83,2.07,1.89,3.41
	l0.01,54.23h5.07V27.92C149.03,23.48,146.04,19.56,141.77,18.39"/>
<polygon class="st0" points="33.72,55.28 60.34,55.28 60.34,81.91 65.41,81.91 65.41,50.22 33.72,50.22 "/>
<polygon class="st0" points="69.8,55.28 96.42,55.28 96.42,81.91 101.49,81.91 101.49,50.22 69.8,50.22 "/>
<rect x="105.89" y="50.22" class="st0" width="31.69" height="5.07"/>
<rect x="105.89" y="76.84" class="st0" width="31.69" height="5.06"/>
<path class="st0" d="M184.51,56.03c-0.82-0.55-1.86-0.98-3.11-1.27c-1.25-0.3-2.75-0.44-4.46-0.44c-1.65,0-3.12,0.16-4.36,0.48
	c-1.24,0.32-2.28,0.76-3.08,1.32c-0.81,0.56-1.42,1.22-1.82,1.96c-0.4,0.74-0.61,1.56-0.61,2.42c0,0.91,0.2,1.75,0.6,2.5
	c0.4,0.76,1.02,1.41,1.83,1.95c0.81,0.54,1.84,0.96,3.08,1.26c1.24,0.3,2.7,0.45,4.36,0.45c1.71,0,3.21-0.15,4.46-0.45
	c1.25-0.3,2.29-0.72,3.11-1.26c0.82-0.54,1.44-1.2,1.83-1.95c0.39-0.75,0.59-1.59,0.59-2.49s-0.2-1.74-0.59-2.49
	C185.94,57.24,185.33,56.58,184.51,56.03 M183.4,60.5c0,1.02-0.54,1.82-1.66,2.46c-1.13,0.64-2.73,0.97-4.77,0.97
	c-2.01,0-3.6-0.33-4.71-0.98c-1.1-0.65-1.64-1.45-1.64-2.45c0-1.08,0.53-1.92,1.64-2.57c1.11-0.65,2.69-0.98,4.71-0.98
	c2.03,0,3.64,0.33,4.77,0.98C182.85,58.58,183.4,59.42,183.4,60.5"/>
<polygon class="st0" points="183.19,53.88 186.6,53.88 186.6,37.24 183.19,37.24 183.19,41.85 177.9,41.85 177.9,44.6 183.19,44.6 
	183.19,47.75 177.79,47.75 177.79,50.54 183.19,50.54 "/>
<path class="st0" d="M173.37,49.15c1.22-1.21,2.23-2.67,3.02-4.36c0.79-1.69,1.23-3.72,1.31-6.03l0-0.13H164.5v2.7h9.52
	c-0.17,1.24-0.56,2.39-1.17,3.4c-0.64,1.05-1.47,2.02-2.46,2.88c-0.99,0.86-2.14,1.63-3.4,2.29c-1.27,0.66-2.62,1.27-4.03,1.79
	l-0.15,0.06l1.77,2.48l0.09-0.03c1.53-0.55,3.07-1.23,4.59-2.03C170.78,51.37,172.16,50.35,173.37,49.15"/>
<rect x="217" y="37.24" class="st0" width="3.41" height="28.87"/>
<path class="st0" d="M198.3,42.19h10.27c-0.05,1.68-0.3,3.23-0.74,4.62c-0.46,1.42-1.15,2.75-2.06,3.98
	c-0.92,1.22-2.09,2.4-3.49,3.49c-1.4,1.09-3.08,2.18-4.98,3.24l-0.14,0.08l2.21,2.37l0.08-0.04c1.83-0.96,3.53-2.04,5.07-3.2
	c1.54-1.16,2.88-2.56,4-4.13c1.11-1.58,2-3.45,2.63-5.56c0.63-2.1,0.97-4.64,1.01-7.54l0-0.13H198.3V42.19z"/>
<polygon class="st0" points="252.94,49.88 235.87,49.88 235.87,41.83 252.56,41.83 252.56,39.04 232.46,39.04 232.46,52.7 
	252.94,52.7 "/>
<polygon class="st0" points="244.2,54.22 240.73,54.22 240.73,59.13 228.74,59.13 228.74,61.94 256.13,61.94 256.13,59.13 
	244.2,59.13 "/>
<polygon class="st0" points="285.54,37.24 282.13,37.24 282.13,53.94 285.54,53.94 285.54,46.26 290.12,46.26 290.12,43.5 
	285.54,43.5 "/>
<path class="st0" d="M277.39,38.33h-3.41v4.61h-7.22v-4.61h-3.41v13.95h14.04V38.33z M266.76,45.7h7.22v3.89h-7.22V45.7z"/>
<polygon class="st0" points="266.12,58.07 282.13,58.07 282.13,66.25 285.54,66.25 285.54,55.31 266.12,55.31 "/>
<path class="st0" d="M320.26,37.65h-19.83v9.14h19.83V37.65z M303.75,40.35h13.19v3.74h-13.19V40.35z"/>
<polygon class="st0" points="296.65,51.46 308.55,51.46 308.55,53.57 300.29,53.57 300.29,56.27 316.91,56.27 316.91,58.59 
	300.29,58.59 300.29,66.25 321.21,66.25 321.21,63.64 303.81,63.64 303.81,61.14 320.41,61.14 320.41,53.57 312.11,53.57 
	312.11,51.46 324.04,51.46 324.04,48.67 296.65,48.67 "/>
<polygon class="st0" points="353.15,46.19 353.15,37.24 349.74,37.24 349.74,58.19 353.15,58.19 353.15,48.95 357.73,48.95 
	357.73,46.19 "/>
<path class="st0" d="M343.41,43.03c-0.05,0.65-0.11,1.32-0.18,2c-0.07,0.69-0.15,1.35-0.22,1.97c-0.08,0.64-0.16,1.2-0.23,1.68
	l-0.02,0.14h3.44l0.02-0.1c0.08-0.5,0.17-1.16,0.25-1.97c0.09-0.82,0.18-1.69,0.26-2.62c0.09-0.91,0.17-1.84,0.24-2.78
	c0.07-0.92,0.12-1.77,0.17-2.51l0.01-0.13h-15.08v2.7h11.48C343.5,41.9,343.46,42.44,343.41,43.03"/>
<path class="st0" d="M348.83,53.23l0.11-0.01v-2.7l-0.14,0.02c-1.36,0.16-2.81,0.29-4.33,0.39c-1.48,0.09-3.06,0.17-4.71,0.23V45.1
	h-3.41v6.12c-0.92,0.03-1.88,0.05-2.83,0.05h-3.14v2.76h0.12c3.44,0,6.77-0.05,9.9-0.15C343.54,53.78,346.37,53.56,348.83,53.23"/>
<polygon class="st0" points="338.15,56.53 334.66,56.53 334.66,65.66 354.75,65.66 354.75,62.85 338.15,62.85 "/>
<path class="st0" d="M171.08,74.84c-0.31-0.2-0.64-0.35-0.99-0.44c-0.35-0.09-0.8-0.14-1.33-0.14c-0.47,0-0.91,0.08-1.31,0.25
	c-0.4,0.16-0.75,0.39-1.03,0.69c-0.28,0.3-0.5,0.65-0.66,1.05c-0.15,0.4-0.23,0.84-0.23,1.3c0,0.48,0.08,0.92,0.24,1.33
	c0.16,0.41,0.39,0.76,0.68,1.05c0.29,0.29,0.63,0.52,1.02,0.67c0.39,0.16,0.8,0.24,1.23,0.24c0.31,0,0.55-0.01,0.71-0.03
	c0.16-0.02,0.32-0.04,0.49-0.08c0.06-0.02,0.11-0.03,0.14-0.04v-2.56h-1.77v-0.99h2.98v4.38c-0.3,0.1-0.66,0.19-1.07,0.26
	c-0.41,0.07-0.91,0.11-1.5,0.11c-0.66,0-1.26-0.1-1.81-0.31c-0.55-0.21-1.02-0.5-1.41-0.89c-0.39-0.39-0.69-0.85-0.9-1.39
	c-0.21-0.54-0.31-1.14-0.31-1.8c0-0.64,0.11-1.22,0.33-1.75c0.22-0.53,0.53-0.99,0.93-1.37c0.4-0.38,0.88-0.68,1.42-0.88
	c0.54-0.21,1.14-0.31,1.77-0.31c0.56,0,1,0.03,1.33,0.1c0.33,0.06,0.71,0.17,1.15,0.33L171.08,74.84z"/>
<polygon class="st0" points="176.35,78.24 173.06,73.34 174.47,73.34 176.97,77.12 179.42,73.34 180.83,73.34 177.55,78.24 
	177.55,81.76 176.35,81.76 "/>
<polygon class="st0" points="182.7,73.34 187.42,73.34 187.42,74.41 183.91,74.41 183.91,76.86 187.1,76.86 187.1,77.93 
	183.91,77.93 183.91,80.7 187.42,80.7 187.42,81.76 182.7,81.76 "/>
<path class="st0" d="M189.79,75.82c0.18-0.53,0.45-0.99,0.8-1.38c0.35-0.39,0.78-0.69,1.28-0.91c0.5-0.22,1.07-0.32,1.69-0.32
	c0.63,0,1.19,0.11,1.7,0.32c0.51,0.22,0.93,0.52,1.28,0.91c0.35,0.39,0.62,0.85,0.8,1.38c0.18,0.54,0.27,1.11,0.27,1.73
	c0,0.64-0.09,1.23-0.27,1.76c-0.18,0.53-0.45,0.99-0.8,1.38c-0.35,0.39-0.78,0.69-1.28,0.9c-0.5,0.21-1.07,0.31-1.71,0.31
	c-0.63,0-1.2-0.1-1.71-0.31c-0.5-0.21-0.93-0.51-1.28-0.9c-0.35-0.39-0.61-0.85-0.8-1.38c-0.18-0.53-0.27-1.12-0.27-1.76
	C189.52,76.93,189.61,76.36,189.79,75.82 M190.96,78.8c0.11,0.39,0.28,0.75,0.51,1.05c0.23,0.31,0.52,0.55,0.87,0.73
	c0.35,0.18,0.76,0.27,1.23,0.27c0.47,0,0.88-0.09,1.23-0.27c0.35-0.18,0.64-0.42,0.87-0.74c0.23-0.31,0.4-0.66,0.51-1.05
	c0.11-0.39,0.16-0.8,0.16-1.24c0-0.43-0.06-0.85-0.17-1.24c-0.12-0.4-0.29-0.75-0.53-1.06c-0.23-0.31-0.52-0.55-0.87-0.73
	c-0.35-0.18-0.75-0.27-1.2-0.27c-0.45,0-0.85,0.09-1.2,0.27c-0.35,0.18-0.64,0.42-0.87,0.73c-0.23,0.31-0.41,0.66-0.52,1.06
	c-0.12,0.39-0.17,0.81-0.17,1.24C190.8,77.99,190.85,78.4,190.96,78.8"/>
<polygon class="st0" points="199.92,73.34 201.56,73.34 205.28,80.12 205.3,80.12 205.3,73.34 206.51,73.34 206.51,81.76 
	204.96,81.76 201.15,74.84 201.13,74.84 201.13,81.76 199.92,81.76 "/>
<path class="st0" d="M215.64,74.84c-0.31-0.2-0.64-0.35-0.99-0.44c-0.35-0.09-0.8-0.14-1.33-0.14c-0.47,0-0.91,0.08-1.31,0.25
	c-0.4,0.16-0.75,0.39-1.03,0.69c-0.28,0.3-0.5,0.65-0.66,1.05c-0.15,0.4-0.23,0.84-0.23,1.3c0,0.48,0.08,0.92,0.24,1.33
	c0.16,0.41,0.39,0.76,0.68,1.05c0.29,0.29,0.63,0.52,1.02,0.67c0.39,0.16,0.8,0.24,1.23,0.24c0.31,0,0.55-0.01,0.71-0.03
	c0.16-0.02,0.32-0.04,0.49-0.08c0.06-0.02,0.11-0.03,0.14-0.04v-2.56h-1.77v-0.99h2.98v4.38c-0.31,0.1-0.66,0.19-1.07,0.26
	c-0.41,0.07-0.91,0.11-1.5,0.11c-0.66,0-1.26-0.1-1.81-0.31c-0.55-0.21-1.02-0.5-1.41-0.89c-0.39-0.39-0.69-0.85-0.91-1.39
	c-0.21-0.54-0.31-1.14-0.31-1.8c0-0.64,0.11-1.22,0.33-1.75c0.22-0.53,0.53-0.99,0.93-1.37c0.4-0.38,0.88-0.68,1.42-0.88
	c0.55-0.21,1.14-0.31,1.77-0.31c0.56,0,0.99,0.03,1.33,0.1c0.33,0.06,0.71,0.17,1.15,0.33L215.64,74.84z"/>
<path class="st0" d="M224.95,74.84c-0.31-0.2-0.63-0.35-0.99-0.44c-0.35-0.09-0.8-0.14-1.33-0.14c-0.47,0-0.91,0.08-1.31,0.25
	c-0.4,0.16-0.75,0.39-1.03,0.69c-0.28,0.3-0.5,0.65-0.66,1.05c-0.15,0.4-0.23,0.84-0.23,1.3c0,0.48,0.08,0.92,0.24,1.33
	c0.16,0.41,0.39,0.76,0.68,1.05c0.29,0.29,0.63,0.52,1.02,0.67c0.39,0.16,0.8,0.24,1.23,0.24c0.31,0,0.55-0.01,0.71-0.03
	c0.16-0.02,0.32-0.04,0.49-0.08c0.06-0.02,0.11-0.03,0.14-0.04v-2.56h-1.77v-0.99h2.98v4.38c-0.31,0.1-0.66,0.19-1.07,0.26
	c-0.41,0.07-0.91,0.11-1.5,0.11c-0.66,0-1.26-0.1-1.81-0.31c-0.55-0.21-1.02-0.5-1.41-0.89c-0.39-0.39-0.69-0.85-0.9-1.39
	c-0.21-0.54-0.31-1.14-0.31-1.8c0-0.64,0.11-1.22,0.33-1.75c0.22-0.53,0.53-0.99,0.93-1.37c0.4-0.38,0.88-0.68,1.42-0.88
	c0.54-0.21,1.14-0.31,1.77-0.31c0.56,0,1,0.03,1.33,0.1c0.33,0.06,0.71,0.17,1.14,0.33L224.95,74.84z"/>
<rect x="227.86" y="73.34" class="st0" width="1.21" height="8.42"/>
<path class="st0" d="M235.7,73.34h2.21c0.46,0,0.87,0.04,1.25,0.13c0.37,0.09,0.71,0.23,1,0.42c0.29,0.19,0.51,0.45,0.67,0.78
	c0.16,0.32,0.24,0.72,0.24,1.19c0,0.45-0.08,0.84-0.24,1.16c-0.16,0.33-0.38,0.59-0.66,0.79c-0.28,0.2-0.59,0.35-0.95,0.44
	c-0.35,0.09-0.73,0.14-1.13,0.14h-1.18v3.37h-1.21V73.34z M236.91,77.34h1.19c0.2,0,0.4-0.03,0.6-0.08c0.2-0.05,0.38-0.13,0.54-0.25
	c0.17-0.12,0.3-0.27,0.4-0.47c0.1-0.19,0.15-0.42,0.15-0.69c0-0.25-0.06-0.47-0.18-0.66c-0.12-0.19-0.27-0.34-0.45-0.45
	c-0.18-0.11-0.39-0.2-0.6-0.25c-0.22-0.06-0.43-0.09-0.63-0.09h-1.03V77.34z"/>
<path class="st0" d="M243.01,73.34h2.06c0.48,0,0.91,0.03,1.28,0.08c0.37,0.06,0.7,0.16,1.01,0.32c0.3,0.16,0.54,0.39,0.72,0.69
	c0.18,0.31,0.27,0.7,0.27,1.18c0,0.5-0.16,0.92-0.49,1.27c-0.33,0.35-0.74,0.56-1.25,0.65v0.02c0.19,0.07,0.34,0.17,0.45,0.28
	c0.12,0.12,0.24,0.3,0.37,0.56l1.59,3.35h-1.37l-1.29-2.92c-0.17-0.37-0.35-0.6-0.54-0.69c-0.19-0.09-0.48-0.13-0.87-0.13h-0.72
	v3.74h-1.21V73.34z M244.22,76.96h1.03c0.57,0,1.02-0.12,1.34-0.36c0.32-0.24,0.48-0.56,0.48-0.96c0-0.39-0.14-0.69-0.43-0.91
	c-0.29-0.22-0.71-0.33-1.25-0.33h-1.16V76.96z"/>
<path class="st0" d="M250.89,75.82c0.18-0.53,0.45-0.99,0.8-1.38c0.35-0.39,0.78-0.69,1.28-0.91c0.5-0.22,1.07-0.32,1.69-0.32
	c0.63,0,1.19,0.11,1.7,0.32c0.51,0.22,0.93,0.52,1.28,0.91c0.35,0.39,0.62,0.85,0.8,1.38c0.18,0.54,0.27,1.11,0.27,1.73
	c0,0.64-0.09,1.23-0.27,1.76c-0.18,0.53-0.45,0.99-0.8,1.38c-0.35,0.39-0.78,0.69-1.28,0.9c-0.5,0.21-1.07,0.31-1.71,0.31
	c-0.63,0-1.2-0.1-1.71-0.31c-0.5-0.21-0.93-0.51-1.28-0.9c-0.35-0.39-0.61-0.85-0.8-1.38c-0.18-0.53-0.27-1.12-0.27-1.76
	C250.62,76.93,250.71,76.36,250.89,75.82 M252.06,78.8c0.11,0.39,0.28,0.75,0.51,1.05c0.23,0.31,0.52,0.55,0.87,0.73
	c0.35,0.18,0.76,0.27,1.23,0.27c0.47,0,0.88-0.09,1.23-0.27c0.35-0.18,0.65-0.42,0.87-0.74c0.23-0.31,0.4-0.66,0.51-1.05
	c0.11-0.39,0.16-0.8,0.16-1.24c0-0.43-0.06-0.85-0.18-1.24c-0.11-0.4-0.29-0.75-0.52-1.06c-0.23-0.31-0.53-0.55-0.88-0.73
	c-0.35-0.18-0.75-0.27-1.2-0.27c-0.45,0-0.85,0.09-1.2,0.27c-0.35,0.18-0.64,0.42-0.87,0.73c-0.23,0.31-0.41,0.66-0.52,1.06
	c-0.12,0.39-0.18,0.81-0.18,1.24C251.9,77.99,251.95,78.4,252.06,78.8"/>
<polygon class="st0" points="264.72,81.76 263.21,81.76 260.04,73.34 261.39,73.34 263.98,80.7 264.01,80.7 266.67,73.34 
	267.94,73.34 "/>
<rect x="269.69" y="73.34" class="st0" width="1.21" height="8.42"/>
<polygon class="st0" points="273.63,73.34 275.27,73.34 278.98,80.12 279.01,80.12 279.01,73.34 280.21,73.34 280.21,81.76 
	278.67,81.76 274.86,74.84 274.84,74.84 274.84,81.76 273.63,81.76 "/>
<path class="st0" d="M288.76,74.73c-0.53-0.31-1.11-0.47-1.74-0.47c-0.48,0-0.91,0.08-1.31,0.24c-0.4,0.16-0.74,0.39-1.03,0.69
	c-0.29,0.3-0.5,0.65-0.66,1.06c-0.15,0.4-0.23,0.84-0.23,1.31c0,0.48,0.08,0.93,0.24,1.33c0.16,0.41,0.39,0.76,0.68,1.05
	c0.29,0.29,0.63,0.52,1.02,0.67c0.38,0.16,0.79,0.24,1.23,0.24c0.31,0,0.65-0.04,1-0.12c0.35-0.08,0.63-0.18,0.83-0.3l0.07,1.17
	c-0.28,0.12-0.59,0.2-0.92,0.24c-0.33,0.04-0.67,0.06-1,0.06c-0.66,0-1.26-0.1-1.81-0.3c-0.55-0.21-1.02-0.5-1.41-0.89
	c-0.39-0.39-0.69-0.85-0.9-1.39c-0.21-0.54-0.31-1.15-0.31-1.8c0-0.64,0.11-1.22,0.32-1.75c0.22-0.53,0.53-0.99,0.93-1.38
	c0.4-0.38,0.88-0.67,1.42-0.88c0.55-0.21,1.14-0.31,1.77-0.31c0.71,0,1.35,0.12,1.89,0.36L288.76,74.73z"/>
<polygon class="st0" points="290.98,73.34 295.7,73.34 295.7,74.41 292.19,74.41 292.19,76.86 295.38,76.86 295.38,77.93 
	292.19,77.93 292.19,80.7 295.7,80.7 295.7,81.76 290.98,81.76 "/>
<polygon class="st0" points="302.2,73.34 304.19,73.34 306.83,80.34 309.42,73.34 311.41,73.34 311.41,81.76 310.21,81.76 
	310.21,74.48 310.18,74.48 307.4,81.76 306.21,81.76 303.43,74.48 303.4,74.48 303.4,81.76 302.2,81.76 "/>
<path class="st0" d="M320.24,78.28c0,1.17-0.28,2.07-0.85,2.69c-0.57,0.62-1.37,0.93-2.42,0.93c-1.04,0-1.85-0.31-2.42-0.93
	c-0.57-0.62-0.85-1.52-0.85-2.69v-4.93h1.21v4.78c0,0.87,0.16,1.54,0.48,2.01c0.32,0.47,0.85,0.71,1.58,0.71
	c0.74,0,1.27-0.24,1.59-0.71c0.32-0.48,0.48-1.15,0.48-2.01v-4.78h1.21V78.28z"/>
<path class="st0" d="M326.82,74.61c-0.34-0.13-0.61-0.22-0.82-0.27c-0.21-0.05-0.46-0.08-0.76-0.08c-0.18,0-0.35,0.02-0.52,0.06
	c-0.17,0.03-0.33,0.1-0.48,0.18c-0.15,0.09-0.26,0.2-0.34,0.35c-0.09,0.15-0.13,0.33-0.13,0.54c0,0.31,0.12,0.57,0.35,0.75
	c0.23,0.19,0.6,0.4,1.1,0.65c0.35,0.16,0.63,0.31,0.85,0.43c0.22,0.13,0.43,0.29,0.64,0.49c0.2,0.2,0.37,0.43,0.49,0.71
	c0.13,0.28,0.19,0.61,0.19,0.98c0,0.43-0.08,0.81-0.23,1.13c-0.16,0.32-0.38,0.58-0.66,0.78c-0.28,0.2-0.6,0.35-0.97,0.44
	c-0.37,0.1-0.77,0.14-1.21,0.14c-0.26,0-0.53-0.03-0.81-0.09c-0.27-0.06-0.58-0.15-0.92-0.26l0.12-1.12
	c0.26,0.11,0.54,0.2,0.86,0.28c0.32,0.08,0.61,0.13,0.89,0.13c0.18,0,0.37-0.03,0.57-0.08c0.19-0.05,0.37-0.13,0.54-0.25
	c0.16-0.11,0.3-0.26,0.4-0.44c0.1-0.18,0.15-0.38,0.15-0.61c0-0.21-0.04-0.39-0.13-0.55c-0.09-0.16-0.2-0.3-0.36-0.44
	c-0.2-0.16-0.57-0.37-1.1-0.62c-0.33-0.16-0.6-0.3-0.81-0.41c-0.21-0.12-0.41-0.26-0.6-0.44c-0.19-0.18-0.35-0.39-0.46-0.64
	c-0.11-0.25-0.17-0.54-0.17-0.88c0-0.72,0.25-1.29,0.76-1.69c0.51-0.4,1.16-0.6,1.94-0.6c0.29,0,0.59,0.02,0.9,0.07
	c0.31,0.05,0.61,0.12,0.89,0.23L326.82,74.61z"/>
<polygon class="st0" points="329.69,73.34 334.41,73.34 334.41,74.41 330.9,74.41 330.9,76.86 334.09,76.86 334.09,77.93 
	330.9,77.93 330.9,80.7 334.41,80.7 334.41,81.76 329.69,81.76 "/>
<path class="st0" d="M343.49,78.28c0,1.17-0.28,2.07-0.85,2.69c-0.57,0.62-1.37,0.93-2.42,0.93c-1.04,0-1.85-0.31-2.42-0.93
	c-0.57-0.62-0.85-1.52-0.85-2.69v-4.93h1.2v4.78c0,0.87,0.16,1.54,0.48,2.01c0.32,0.47,0.85,0.71,1.59,0.71
	c0.74,0,1.27-0.24,1.59-0.71c0.32-0.48,0.48-1.15,0.48-2.01v-4.78h1.21V78.28z"/>
<polygon class="st0" points="345.54,73.34 347.53,73.34 350.17,80.34 352.76,73.34 354.75,73.34 354.75,81.76 353.55,81.76 
	353.55,74.48 353.52,74.48 350.73,81.76 349.55,81.76 346.77,74.48 346.74,74.48 346.74,81.76 345.54,81.76 "/>
</svg>
